{"title":"The Christmas Bunny 2010 DVDrip English Klam","uid":6867527,"size":1157180740,"categoryP":"video","categoryS":"movies","magnet":"?xt=urn:btih:122b6fd8a7a98ba15b3b27ffc0e240554ad66157&amp;dn=The+Christmas+Bunny+2010+DVDrip+English+Klam&amp;tr=udp%3A%2F%2Ftracker.openbittorrent.com%3A80&amp;tr=udp%3A%2F%2Fopen.demonii.com%3A1337&amp;tr=udp%3A%2F%2Ftracker.coppersurfer.tk%3A6969&amp;tr=udp%3A%2F%2Fexodus.desync.com%3A6969","seeders":0,"leechers":2,"uploader":"Klambake","files":-1,"time":1323163197,"description":"With: Florence Henderson, Sophie Bolen and Madeline Vail\n\nJulia is een eenzaam pleegkind. Ze treft op kerstavond een gewond konijn aan en sluit een onverwachte vriendschap met een excentrieke boerenvrouw, die het konijn onder haar hoede neemt. Ondertussen weet Julia een band te krijgen met haar pleeggezin, waardoor het een stuk beter met haar gaat.\n\nWhen Julia, a lonely foster child, discovers an injured rabbit on Christmas Eve, she forms an unlikely friendship with an eccentric farmwoman (Florence Henderson) who vows to nurse the bunny back to health. In the process, Julia s own heart is healed and she forges a bond with her adoptive family that makes her holidays one she and you will never forget. \n\n------------------------ Dutch Friends ------------------------\n---------------------------------------------------------------\n- Bezoek ook eens mijn vrienden op: &lt;a href=&quot; http://www.Film-Test.nl&quot; rel=&quot;nofollow&quot; target=&quot;_NEW&quot;&gt; http://www.Film-Test.nl&lt;/a&gt; --\n----- voor mijn Nederlandse Sync. ondertitels ---- en meer ----\n------- http://www.Film-Test.nl ---- voor Films en meer -------\n---------------------------------------------------------------\n\nGeneral:\n\nComplete name                    : The Christmas Bunny\\The Christmas Bunny.avi\nFormat                           : AVI\nFormat/Info                      : Audio Video Interleave\nFile size                        : 1.08 GiB\nDuration                         : 1h 35mn\nOverall bit rate                 : 1 620 Kbps\n\nVideo:\n\nFormat                           : MPEG-4 Visual\nFormat profile                   : Simple@L3\nFormat settings, BVOP            : No\nFormat settings, QPel            : No\nFormat settings, GMC             : No warppoints\nFormat settings, Matrix          : Default (H.263)\nCodec ID                         : XVID\nCodec ID/Hint                    : XviD\nDuration                         : 1h 35mn\nBit rate                         : 1 385 Kbps\nWidth                            : 652 pixels\nHeight                           : 352 pixels\nDisplay aspect ratio             : 1.852\nFrame rate                       : 25.000 fps\nColor space                      : YUV\nChroma subsampling               : 4:2:0\nBit depth                        : 8 bits\nScan type                        : Progressive\nCompression mode                 : Lossy\nBits/(Pixel*Frame)               : 0.241\nStream size                      : 943 MiB (86%)\nWriting library                  : XviD 1.1.2 (UTC 2006-11-01)\n\nAudio:\n\nFormat                           : AC-3\nFormat/Info                      : Audio Coding 3\nMode extension                   : CM (complete main)\nCodec ID                         : 2000\nDuration                         : 1h 35mn\nBit rate mode                    : Constant\nBit rate                         : 224 Kbps\nChannel(s)                       : 2 channels\nChannel positions                : Front: L R\nSampling rate                    : 48.0 KHz\nBit depth                        : 16 bits\nCompression mode                 : Lossy\nStream size                      : 153 MiB (14%)\nAlignment                        : Aligned on interleaves\nInterleave, duration             : 32 ms (0.80 video frame)\nInterleave, preload duration     : 224 ms\n","torrent":{"xt":"urn:btih:122b6fd8a7a98ba15b3b27ffc0e240554ad66157","amp;dn":"The+Christmas+Bunny+2010+DVDrip+English+Klam","amp;tr":["udp%3A%2F%2Ftracker.openbittorrent.com%3A80","udp%3A%2F%2Fopen.demonii.com%3A1337","udp%3A%2F%2Ftracker.coppersurfer.tk%3A6969","udp%3A%2F%2Fexodus.desync.com%3A6969"],"infoHash":"122b6fd8a7a98ba15b3b27ffc0e240554ad66157","infoHashBuffer":{"type":"Buffer","data":[18,43,111,216,167,169,139,161,91,59,39,255,192,226,64,85,74,214,97,87]},"announce":[],"urlList":[]}}